<svg viewBox="0 0 12 12" fill="none" xmlns="http://www.w3.org/2000/svg">
<rect width="12" height="12" rx="2" fill="#0054FA" style="fill:#0054FA;fill:color(display-p3 0.0000 0.3294 0.9804);fill-opacity:1;"/>
<path d="M2.87064 3.5H3.80308L4.40442 8.5H3.61389L3.52604 7.41214H3.10713L3.01928 8.5H2.26929L2.87064 3.5ZM3.24225 5.72297L3.16119 6.74998H3.47198L3.38416 5.72297L3.32334 4.85811H3.30307L3.24225 5.72297ZM6.0613 8.5H5.25723V3.5H6.31131C6.88562 3.5 7.23698 3.83782 7.23698 4.44595V5.67566C7.23698 6.277 6.88562 6.61486 6.31131 6.61486H6.0613V8.5ZM6.06806 6.01352H6.24373C6.37885 6.01352 6.43291 5.89188 6.43291 5.67566V4.44595C6.43291 4.22298 6.37885 4.10134 6.24373 4.10134H6.06806V6.01352ZM8.16318 8.5V3.5H9.73074V4.16216H8.96721V5.64187H9.64965V6.30403H8.96721V7.83784H9.73074V8.5H8.16318Z" fill="white" style="fill:white;fill-opacity:1;"/>
</svg>
