<svg width="256" height="256" viewBox="0 0 256 256" fill="none" xmlns="http://www.w3.org/2000/svg">
<g clip-path="url(#clip0_340_1486)">
<path d="M42.667 3.55566H213.333C234.933 3.55566 252.444 21.0665 252.444 42.667V213.333C252.444 234.933 234.933 252.444 213.333 252.444H42.667C21.0665 252.444 3.55566 234.933 3.55566 213.333V42.667C3.55566 21.0665 21.0665 3.55566 42.667 3.55566Z" fill="#F6F8FE" stroke="#D2DBF9" stroke-width="7.11111"/>
<mask id="mask0_340_1486" style="mask-type:luminance" maskUnits="userSpaceOnUse" x="42" y="28" width="178" height="200">
<path d="M219.422 28.4445H42.6667V227.556H219.422V28.4445Z" fill="white"/>
</mask>
<g mask="url(#mask0_340_1486)">
<path d="M131.31 40.8046C131.797 40.8046 132.247 40.9277 132.698 41.1694L205.716 83.6359C206.573 84.1239 207.104 85.024 207.061 85.9999L206.777 170.483C206.777 171.465 206.246 172.359 205.389 172.847L132.124 214.821C131.717 215.067 131.229 215.186 130.736 215.186C130.244 215.186 129.798 215.063 129.348 214.821L56.3342 172.359C55.4768 171.871 54.9461 170.971 54.9888 169.995L55.2731 85.512C55.2731 84.5314 55.8037 83.6359 56.6612 83.148L129.964 41.1314C130.371 40.9277 130.859 40.8046 131.31 40.8046ZM131.352 28.4445C128.742 28.4445 126.131 29.0983 123.805 30.4437L50.5404 72.4176C45.8503 75.1133 42.951 80.0876 42.951 85.4741L42.6667 169.957C42.6667 175.344 45.5233 180.318 50.1709 183.051L123.189 225.519C125.516 226.864 128.126 227.56 130.736 227.56C133.347 227.56 135.957 226.907 138.283 225.562L211.548 183.588C216.239 180.897 219.137 175.918 219.137 170.536L219.422 86.0521C219.422 80.6656 216.564 75.6912 211.918 72.9577L138.899 30.4863C136.573 29.1409 133.962 28.4445 131.352 28.4445Z" fill="#1B4ADD"/>
<path d="M146.156 74.4966H135.468C134.654 74.4966 133.957 74.9845 133.673 75.7615L99.2457 170.113C98.9994 170.724 99.4922 171.378 100.141 171.378H110.829C111.644 171.378 112.34 170.89 112.624 170.113L147.052 75.7615C147.298 75.1504 146.805 74.4966 146.156 74.4966ZM127.434 74.4966H116.746C115.931 74.4966 115.235 74.9845 114.95 75.7615L80.5611 170.075C80.3148 170.687 80.8076 171.339 81.4565 171.339H92.1442C92.9592 171.339 93.6555 170.852 93.9398 170.075L128.329 75.7615C128.575 75.1504 128.125 74.4966 127.434 74.4966ZM141.305 111.046C141.021 110.189 139.794 110.189 139.51 111.046L133.962 126.301C133.801 126.708 133.801 127.196 133.962 127.608L149.463 170.075C149.747 170.809 150.444 171.339 151.259 171.339H161.945C162.6 171.339 163.088 170.687 162.841 170.075L141.305 111.046ZM181.527 170.075L150.647 85.388C150.363 84.5305 149.136 84.5305 148.851 85.388L143.304 100.643C143.143 101.05 143.143 101.538 143.304 101.95L168.148 170.075C168.432 170.809 169.128 171.339 169.943 171.339H180.631C181.322 171.382 181.773 170.687 181.527 170.075Z" fill="#1B4ADD"/>
</g>
</g>
<defs>
<clipPath id="clip0_340_1486">
<rect width="256" height="256" fill="white"/>
</clipPath>
</defs>
</svg>
