<?xml version="1.0" encoding="UTF-8"?>
<svg xmlns="http://www.w3.org/2000/svg" xmlns:xlink="http://www.w3.org/1999/xlink" width="20px" height="20px" viewBox="0 0 20 20" version="1.1">
<g id="surface1">
<path style=" stroke:none;fill-rule:nonzero;fill:rgb(0%,0%,0%);fill-opacity:1;" d="M 2.03125 0.078125 L 7.921875 0.078125 C 8.050781 0.078125 8.15625 0.183594 8.15625 0.3125 L 8.15625 19.597656 C 8.15625 19.726562 8.050781 19.832031 7.921875 19.832031 L 2.03125 19.832031 C 1.902344 19.832031 1.796875 19.726562 1.796875 19.597656 L 1.796875 0.3125 C 1.796875 0.183594 1.902344 0.078125 2.03125 0.078125 Z M 2.03125 0.078125 "/>
<path style=" stroke:none;fill-rule:nonzero;fill:rgb(0%,0%,0%);fill-opacity:1;" d="M 9.355469 0.078125 L 17.96875 0.078125 C 18.097656 0.078125 18.203125 0.183594 18.203125 0.3125 L 18.203125 9.269531 C 18.203125 9.398438 18.097656 9.503906 17.96875 9.503906 L 9.355469 9.503906 C 9.226562 9.503906 9.121094 9.398438 9.121094 9.269531 L 9.121094 0.3125 C 9.121094 0.183594 9.226562 0.078125 9.355469 0.078125 Z M 9.355469 0.078125 "/>
<path style=" stroke:none;fill-rule:nonzero;fill:rgb(0%,0%,0%);fill-opacity:1;" d="M 9.355469 10.46875 L 17.96875 10.46875 C 18.097656 10.46875 18.203125 10.574219 18.203125 10.703125 L 18.203125 19.65625 C 18.203125 19.789062 18.097656 19.890625 17.96875 19.890625 L 9.355469 19.890625 C 9.226562 19.890625 9.121094 19.789062 9.121094 19.65625 L 9.121094 10.703125 C 9.121094 10.574219 9.226562 10.46875 9.355469 10.46875 Z M 9.355469 10.46875 "/>
</g>
</svg>
