<svg width="16" height="16" viewBox="0 0 16 16" fill="none" xmlns="http://www.w3.org/2000/svg">
<path d="M3.32531 7.59111C3.32532 7.5018 3.34298 7.41339 3.37726 7.33093C3.41154 7.24847 3.46176 7.1736 3.52506 7.1106C3.58837 7.04761 3.66348 6.99773 3.7461 6.96385C3.82873 6.92998 3.91724 6.91275 4.00654 6.91316L5.13601 6.91684C5.31609 6.91684 5.48879 6.98838 5.61613 7.11572C5.74347 7.24306 5.81501 7.41576 5.81501 7.59584V11.8665C5.94216 11.8288 6.10547 11.7886 6.28416 11.7465C6.40828 11.7173 6.5189 11.6471 6.59808 11.5472C6.67725 11.4472 6.72033 11.3235 6.7203 11.196V5.89834C6.7203 5.71825 6.79183 5.54554 6.91916 5.41818C7.04649 5.29082 7.2192 5.21925 7.3993 5.21921H8.53101C8.71109 5.21925 8.8838 5.29082 9.01113 5.41818C9.13847 5.54554 9.21001 5.71825 9.21001 5.89834V10.815C9.21001 10.815 9.49336 10.7004 9.76936 10.5839C9.87188 10.5405 9.95937 10.4679 10.0209 10.3752C10.0825 10.2824 10.1153 10.1736 10.1154 10.0623V4.20085C10.1154 4.02079 10.1869 3.84811 10.3142 3.72077C10.4416 3.59343 10.6142 3.52189 10.7943 3.52185H11.926C12.1061 3.52185 12.2788 3.59339 12.4061 3.72072C12.5335 3.84805 12.605 4.02076 12.605 4.20085V9.0276C13.5862 8.31652 14.5805 7.46133 15.3695 6.43297C15.484 6.28371 15.5598 6.10843 15.59 5.92277C15.6203 5.73713 15.6041 5.54687 15.5429 5.36898C15.1777 4.31811 14.5972 3.35504 13.8384 2.54144C13.0795 1.72782 12.1593 1.08158 11.1364 0.644048C10.1135 0.206522 9.0105 -0.0126478 7.89804 0.00056365C6.78559 0.0137752 5.68814 0.259078 4.67594 0.720774C3.66373 1.18247 2.75904 1.85038 2.01979 2.68179C1.28053 3.5132 0.722971 4.48976 0.3828 5.54902C0.0426291 6.60827 -0.0726661 7.72687 0.0442916 8.83324C0.161249 9.93961 0.507886 11.0094 1.06202 11.9741C1.15855 12.1405 1.30056 12.2759 1.47138 12.3644C1.64219 12.4529 1.83472 12.4909 2.02635 12.4737C2.24041 12.4549 2.50693 12.4283 2.82382 12.391C2.96176 12.3754 3.08912 12.3095 3.18162 12.206C3.27413 12.1025 3.32532 11.9686 3.32544 11.8297L3.32531 7.59111Z" fill="white"/>
<path d="M3.3006 14.4409C4.49349 15.3087 5.90323 15.8297 7.37382 15.946C8.84442 16.0623 10.3185 15.7696 11.6331 15.1001C12.9476 14.4305 14.0512 13.4105 14.822 12.1526C15.5926 10.8948 16.0004 9.44824 16 7.97304C16 7.78896 15.9914 7.60684 15.9792 7.42578C13.0577 11.783 7.66347 13.82 3.30085 14.4403" fill="#8B8B8B"/>
</svg>
