<svg width="16" height="16" viewBox="0 0 16 16" fill="none" xmlns="http://www.w3.org/2000/svg">
<path opacity="0.4" d="M13.8282 0.0555246L0 1.75342L1.68057 15.4405L15.5088 13.7427L13.8282 0.0555246Z" fill="white"/>
<path d="M16 0H2.06793V13.7899H16V0Z" fill="white"/>
<path d="M9.47467 5.19184C9.85981 5.18535 10.2392 5.28574 10.5708 5.48185C10.8979 5.68163 11.1601 5.972 11.3256 6.31778C11.5154 6.71707 11.6089 7.15529 11.5986 7.59725C11.6095 8.04201 11.516 8.48313 11.3256 8.88526C11.1601 9.23104 10.8979 9.52141 10.5708 9.72118C10.2392 9.9173 9.85981 10.0177 9.47467 10.0112C9.08671 10.0225 8.70492 9.91218 8.38285 9.69559C8.08726 9.49288 7.8657 9.19945 7.75164 8.85967V9.95149H6.77924V3.6394H7.75164V6.34337C7.8657 6.00358 8.08726 5.71016 8.38285 5.50744C8.70492 5.29085 9.08671 5.1805 9.47467 5.19184ZM9.17612 6.04482C8.91868 6.04073 8.66501 6.10709 8.44256 6.23674C8.22415 6.36713 8.04681 6.5563 7.93077 6.78265C7.80191 7.03452 7.73743 7.31439 7.74311 7.59725C7.73642 7.88158 7.80093 8.16307 7.93077 8.41612C8.04775 8.64069 8.22497 8.82825 8.44256 8.95776C8.66501 9.08741 8.91868 9.15378 9.17612 9.14968C9.36895 9.15808 9.56138 9.12556 9.74074 9.05426C9.9201 8.98295 10.0823 8.87449 10.2168 8.73599C10.4783 8.46019 10.6091 8.08061 10.6091 7.59725C10.6315 7.18237 10.4907 6.77519 10.2168 6.46278C10.083 6.32314 9.92097 6.21363 9.74153 6.14155C9.56208 6.06948 9.36932 6.0365 9.17612 6.04482Z" fill="#012137"/>
</svg>
