<svg viewBox="0 0 18 18" fill="none" xmlns="http://www.w3.org/2000/svg">
<rect width="18" height="18" rx="3" fill="black" style="fill:black;fill-opacity:1;"/>
<path d="M13.9596 12.049C13.9613 11.7806 14.9861 11.7919 14.9791 11.5406C14.9741 11.3474 14.5205 11.3518 14.663 10.9421C14.8728 10.331 14.987 9.6756 14.987 8.99376C14.987 5.68344 12.3036 3 8.99352 3C5.68344 3 3 5.68344 3 8.99352C3 9.67776 3.11496 10.3349 3.3264 10.9476C3.3276 10.9505 3.33936 10.9853 3.33936 10.9853C3.42456 11.257 3.0012 11.3635 3.0012 11.5258C3.0012 11.7799 3.8928 11.7456 3.8928 12.0415C3.8928 12.299 3.01128 12.3785 3.01128 12.6384C3.01128 12.9974 4.96368 12.8724 4.9884 13.1813C5.0076 13.4196 4.31712 13.4338 4.31328 13.6886C4.30656 14.095 6.978 13.962 6.978 14.2325C6.978 14.4372 5.76288 14.3633 5.76288 14.605C5.76288 14.8466 7.36248 15 9.1248 15C10.8871 15 12.1034 14.8039 12.1034 14.592C12.1034 14.3801 10.969 14.424 10.992 14.2325C11.0333 13.8989 13.5514 14.0695 13.5514 13.6836C13.5514 13.4801 12.8587 13.4328 12.8813 13.2134C12.913 12.9034 14.987 12.9497 14.987 12.6278C14.987 12.3749 13.9596 12.3127 13.9608 12.0502L13.9596 12.049ZM12.3528 11.2706C12.2981 11.4754 12.9293 11.5056 12.9293 11.7192C12.9293 11.9791 11.004 11.8754 11.0232 12.2191C11.035 12.4356 12.3912 12.4721 12.3653 12.6982C12.3281 13.0255 10.2653 12.8621 10.2449 13.1755C10.2302 13.4054 11.2514 13.4134 11.2538 13.6231C11.2555 13.7995 10.4513 13.896 8.91144 13.896C7.1568 13.896 6.30408 13.8012 6.40104 13.6042C6.49176 13.4198 8.04504 13.4542 8.02944 13.1645C8.0136 12.8748 5.27112 12.9605 5.18832 12.6797C5.11944 12.4464 6.08952 12.3984 6.08328 12.1769C6.07704 11.9508 4.84104 12.0022 4.81392 11.7288C4.7964 11.549 5.45976 11.5608 5.43096 11.3347C5.41008 11.1701 5.13624 11.1934 4.97376 10.8545C4.71168 10.2881 4.56456 9.65784 4.56456 8.99352C4.56456 6.54792 6.54672 4.56576 8.99232 4.56576C11.4379 4.56576 13.4201 6.54792 13.4201 8.99352C13.4201 9.59664 13.2994 10.1714 13.0807 10.6956C12.8726 11.1667 12.4044 11.0722 12.3514 11.2704H12.3526L12.3528 11.2706Z" fill="white" style="fill:white;fill-opacity:1;"/>
</svg>
