<svg viewBox="0 0 14 14" fill="none" xmlns="http://www.w3.org/2000/svg">
<rect width="14" height="14" rx="2" fill="#04795B" style="fill:#04795B;fill:color(display-p3 0.0157 0.4745 0.3569);fill-opacity:1;"/>
<g clip-path="url(#clip0_502_17149)">
<path d="M5.04229 7.65919C5.31531 7.65919 5.58166 7.56819 5.79696 7.40172L4.06566 5.67041C3.64837 6.20978 3.74825 6.98665 4.28762 7.40394C4.50514 7.56819 4.76928 7.65919 5.04229 7.65919Z" fill="white" style="fill:white;fill-opacity:1;"/>
<path d="M10.1918 6.42289C10.1918 6.14987 10.1008 5.88352 9.93434 5.66821L8.20303 7.39952C8.7424 7.81681 9.51705 7.71693 9.93434 7.17756C10.1008 6.96225 10.1918 6.6959 10.1918 6.42289Z" fill="white" style="fill:white;fill-opacity:1;"/>
<path d="M11.0641 4.53833L10.2984 5.3041C10.9154 6.04324 10.8178 7.14417 10.0786 7.76123C9.43049 8.30282 8.48937 8.30282 7.84124 7.76123L7 8.60247L6.16098 7.76345C5.42185 8.3805 4.32091 8.28284 3.70386 7.5437C3.16227 6.89557 3.16227 5.95445 3.70386 5.30632L3.31098 4.91345L2.93808 4.53833C2.4875 5.27969 2.25 6.13202 2.25 6.9999C2.25 9.62349 4.3764 11.7499 7 11.7499C9.6236 11.7499 11.75 9.62349 11.75 6.9999C11.7522 6.13202 11.5125 5.27969 11.0641 4.53833Z" fill="white" style="fill:white;fill-opacity:1;"/>
<path d="M10.436 3.72154C8.62699 1.82376 5.62162 1.75273 3.72384 3.56173C3.66835 3.615 3.61507 3.66827 3.56402 3.72154C3.44638 3.84584 3.3354 3.97458 3.23108 4.10997L7 7.88112L10.7689 4.10997C10.6668 3.97458 10.5536 3.84584 10.436 3.72154ZM7 2.87142C8.10982 2.87142 9.14416 3.29981 9.92103 4.08112L7 7.00215L4.07898 4.08112C4.85585 3.29981 5.89019 2.87142 7 2.87142Z" fill="white" style="fill:white;fill-opacity:1;"/>
</g>
<defs>
<clipPath id="clip0_502_17149">
<rect width="9.5" height="9.5" fill="white" style="fill:white;fill-opacity:1;" transform="translate(2.25 2.25)"/>
</clipPath>
</defs>
</svg>
