<svg width="256" height="256" viewBox="0 0 256 256" fill="none" xmlns="http://www.w3.org/2000/svg">
<g clip-path="url(#clip0_340_1507)">
<path d="M42.667 3.55566H213.333C234.933 3.55566 252.444 21.0665 252.444 42.667V213.333C252.444 234.933 234.933 252.444 213.333 252.444H42.667C21.0665 252.444 3.55566 234.933 3.55566 213.333V42.667C3.55566 21.0665 21.0665 3.55566 42.667 3.55566Z" fill="#FFF5F6" stroke="#FFCCD2" stroke-width="7.11111"/>
<g clip-path="url(#clip1_340_1507)">
<path d="M128 171.448V203.33C95.2048 203.33 68.6111 176.736 68.6111 143.941C68.6111 111.145 95.2048 84.5514 128 84.5514V52.6685C160.796 52.6685 187.39 79.2625 187.39 112.058C187.39 144.853 160.796 171.448 128 171.448Z" fill="white"/>
<path d="M128 42.6666C80.876 42.6666 42.6667 80.8759 42.6667 128C42.6667 175.124 80.876 213.333 128 213.333C175.124 213.333 213.333 175.124 213.333 128C213.333 80.8759 175.124 42.6666 128 42.6666ZM128 171.448V203.331C95.2043 203.331 68.6107 176.737 68.6107 143.941C68.6107 111.146 95.2043 84.552 128 84.552V52.6691C160.795 52.6691 187.389 79.2631 187.389 112.058C187.389 144.854 160.795 171.448 128 171.448ZM157.382 127.725V128.275C144.429 134.727 134.726 144.429 128.275 157.382H127.725C121.273 144.429 111.571 134.727 98.6177 128.275V127.725C111.571 121.273 121.273 111.571 127.725 98.618H128.275C134.726 111.571 144.429 121.273 157.382 127.725Z" fill="#FF0420"/>
</g>
</g>
<defs>
<clipPath id="clip0_340_1507">
<rect width="256" height="256" fill="white"/>
</clipPath>
<clipPath id="clip1_340_1507">
<rect width="170.667" height="170.667" fill="white" transform="translate(42.6667 42.6666)"/>
</clipPath>
</defs>
</svg>
