<svg width="256" height="256" viewBox="0 0 256 256" fill="none" xmlns="http://www.w3.org/2000/svg">
<g clip-path="url(#clip0_340_1352)">
<path d="M36.5713 3.55566H219.429C237.663 3.55573 252.444 18.3372 252.444 36.5713V219.429C252.444 237.663 237.663 252.444 219.429 252.444H36.5713C18.3372 252.444 3.55573 237.663 3.55566 219.429V36.5713L3.56641 35.7197C4.01099 18.1622 18.1622 4.01099 35.7197 3.56641L36.5713 3.55566Z" fill="#FFFAF5" stroke="#FFE6CC" stroke-width="7.11111"/>
<path d="M202.224 158.531V57.6718C202.014 49.2492 195.275 42.5113 186.853 42.5113H81.9924C59.2516 42.9324 41.1432 61.4619 41.1432 84.2027C41.1432 91.7829 43.2488 98.521 46.4073 104.206C49.1447 109.049 53.3559 113.471 57.3566 116.84C58.62 117.893 57.9882 117.472 61.5678 119.577C66.4108 122.525 72.096 123.999 72.096 123.999V184.22C72.3065 187.167 72.5171 189.905 73.3594 192.432C75.6755 200.854 81.5713 207.382 89.5726 210.54C92.9417 211.804 96.7318 212.647 100.733 212.857L184.326 213.277C200.96 213.277 214.647 199.801 214.647 182.956C214.647 173.06 209.803 164.006 202.224 158.531Z" fill="#FFEEDA"/>
<path d="M204.328 183.587C203.908 194.324 195.065 202.959 184.325 202.959L126.631 202.746C131.263 197.484 134.001 190.535 134.001 182.954C134.001 171.163 127.052 162.951 127.052 162.951H184.536C195.485 162.951 204.538 172.005 204.538 182.954L204.328 183.587Z" fill="#EBC28E"/>
<path d="M62.8312 108.417C56.0933 102.101 51.4608 93.8887 51.4608 84.2027V83.1498C52.0926 66.726 65.5686 53.2499 81.9924 52.8288H187.063C189.801 53.0395 191.905 54.9344 191.905 57.6718V146.74C194.222 147.161 195.486 147.582 197.802 148.214C199.697 148.845 202.224 150.319 202.224 150.319V57.6718C202.014 49.2492 195.275 42.5113 186.853 42.5113H81.9924C59.2516 42.9324 41.1432 61.4619 41.1432 84.2027C41.1432 97.4681 47.2496 108.839 56.9355 116.629C57.5671 117.261 58.1989 117.893 60.0938 117.893C63.2523 117.893 65.3579 115.366 65.1475 112.839C65.1475 110.523 64.3052 109.681 62.8312 108.417Z" fill="#101010"/>
<path d="M184.325 152.635H101.995C96.5204 152.635 92.0985 157.057 92.0985 162.742V174.534C92.309 180.008 96.9415 184.64 102.416 184.64H108.522V174.534H102.416V162.953C102.416 162.953 103.89 162.953 105.785 162.953C116.103 162.953 123.894 172.639 123.894 182.956C123.894 192.221 115.471 203.802 101.574 202.961C89.1507 202.118 82.4126 191.168 82.4126 182.956V82.5179C82.4126 78.096 78.6225 74.306 74.2006 74.306H65.9887V84.6235H72.095V183.166C71.6739 203.171 86.4133 213.277 101.574 213.277L184.535 213.488C201.17 213.488 214.857 200.011 214.857 183.166C214.646 166.322 201.17 152.635 184.325 152.635ZM204.328 183.589C203.907 194.326 195.064 202.961 184.325 202.961L126.631 202.748C131.263 197.486 134 190.537 134 182.956C134 171.165 127.052 162.953 127.052 162.953H184.535C195.485 162.953 204.538 172.007 204.538 182.956L204.328 183.589Z" fill="#101010"/>
<path d="M162.217 86.3078H100.101V76.2009H162.217C164.954 76.2009 167.27 78.517 167.27 81.2544C167.27 83.9917 165.165 86.3078 162.217 86.3078Z" fill="#101010"/>
<path d="M162.217 134.737H100.101V124.42H162.217C164.954 124.42 167.27 126.736 167.27 129.473C167.27 132.421 165.165 134.737 162.217 134.737Z" fill="#101010"/>
<path d="M173.166 110.523H100.101V100.205H173.166C175.903 100.205 178.219 102.522 178.219 105.259C178.219 108.207 175.903 110.523 173.166 110.523Z" fill="#101010"/>
</g>
<defs>
<clipPath id="clip0_340_1352">
<rect width="256" height="256" fill="white"/>
</clipPath>
</defs>
</svg>
