<svg width="256" height="256" viewBox="0 0 256 256" fill="none" xmlns="http://www.w3.org/2000/svg">
<g clip-path="url(#clip0_340_1387)">
<path d="M42.667 3.55566H213.333C234.933 3.55566 252.444 21.0665 252.444 42.667V213.333C252.444 234.933 234.933 252.444 213.333 252.444H42.667C21.0665 252.444 3.55566 234.933 3.55566 213.333V42.667C3.55566 21.0665 21.0665 3.55566 42.667 3.55566Z" fill="url(#paint0_linear_340_1387)" stroke="#E9ECEF" stroke-width="7.11111"/>
<mask id="mask0_340_1387" style="mask-type:luminance" maskUnits="userSpaceOnUse" x="32" y="32" width="192" height="192">
<path d="M224 32H32V224H224V32Z" fill="white"/>
</mask>
<g mask="url(#mask0_340_1387)">
<path d="M128.75 86C130.576 86 131.101 87.194 131.322 89.1656L131.377 89.9987L131.46 91.3871L131.571 93.914L131.709 98.0237L131.792 102.55L131.875 108.271L131.958 114.546L131.976 120.993C131.981 123.051 133.645 124.72 135.702 124.732L141.057 124.765L149.354 124.848L153.889 124.904L158.591 125.015L161.91 125.126L164.62 125.209L166.556 125.32L167.386 125.404C169.35 125.626 170.566 126.154 170.566 127.986C170.566 129.819 169.35 130.347 167.386 130.569L166.556 130.652L165.173 130.735L162.685 130.846L158.591 130.957L154.083 131.068L148.386 131.152L143.74 131.179L137.158 131.235H135.735C133.665 131.235 131.985 132.914 131.985 134.985V138.122L131.903 146.175L131.847 150.646L131.764 154.755L131.654 159.726L131.571 162.058L131.433 165.529L131.35 166.39C131.156 168.612 130.714 170 128.75 170C126.897 170 126.4 168.778 126.178 166.806L126.095 165.973L126.012 164.585L125.929 162.753L125.818 158.865L125.736 156.033L125.652 151.784L125.569 145.453L125.514 136.788V134.985C125.514 132.914 123.835 131.235 121.764 131.235H118.628L109.086 131.152L103.417 131.068L98.909 130.957L94.8158 130.846L91.3587 130.68L90.5013 130.624C88.2888 130.43 86.906 129.958 86.906 127.986C86.906 126.154 88.1229 125.626 90.0866 125.404L90.9162 125.32L92.8522 125.209L95.5624 125.126L98.8813 125.015L103.417 124.904L109.086 124.821L113.733 124.793L122.029 124.737C123.941 124.737 125.493 123.192 125.499 121.28L125.514 117.406L125.569 110.52L125.652 104.188L125.763 98.9679L125.874 94.6637L125.984 91.9424L126.095 89.9987L126.178 89.1656C126.4 87.2218 126.897 86 128.75 86ZM117.909 99.4541L118.268 99.44C121.034 99.3843 121.863 100.745 122.001 101.911C122.052 102.286 122.024 102.668 121.919 103.031C121.815 103.394 121.635 103.732 121.393 104.022C120.675 104.883 119.623 105.105 118.766 105.188L118.158 105.216H118.074L114.811 105.327L111.658 105.494L108.589 105.66L105.602 105.882L102.726 106.104L99.9599 106.382L97.2495 106.66L94.6221 106.965L89.6441 107.659L87.2932 108.048L85.0255 108.437L81.7344 109.048L79.6601 109.492L77.6689 109.964L75.7329 110.409L73.8801 110.908L72.9672 111.158L71.2249 111.658L69.5656 112.158L67.9616 112.686C67.4084 112.852 66.9107 113.046 66.4128 113.241L64.947 113.769L63.5366 114.324L62.1813 114.852L61.5451 115.129L60.273 115.685L59.6923 115.962L58.5307 116.518L57.4246 117.073L56.3735 117.628L55.8481 117.906L54.8802 118.489L53.9676 119.045L53.1377 119.6L52.308 120.155L51.5336 120.711C47.1917 124.543 46.611 127.375 46.7769 129.041L46.8322 129.458L46.8507 129.538C46.8936 129.725 46.9508 129.908 47.0216 130.086L47.1364 130.486C48.215 133.345 51.5061 136.095 56.3183 138.538L57.7011 139.261C58.9179 139.815 60.2178 140.399 61.5729 140.926L63.2324 141.593L65.8596 142.537L67.6849 143.12L69.5379 143.703L71.4739 144.259L72.4418 144.536L74.433 145.092L75.4564 145.369L77.5029 145.869L79.6049 146.341L81.7066 146.813L83.8639 147.258L86.0211 147.674L87.1272 147.868L89.3397 148.23L90.4461 148.424L92.6585 148.757L94.871 149.09L97.0835 149.368L98.2176 149.507L100.43 149.757L101.564 149.868L103.776 150.062L105.989 150.256C106.376 150.256 106.736 150.312 107.095 150.339L109.308 150.479C109.667 150.479 110.027 150.479 110.386 150.534L112.543 150.618L114.673 150.673H118.13C119.236 150.701 120.426 150.867 121.255 151.784C121.808 152.422 122.029 153.2 121.919 154.006C121.642 156.227 119.651 156.532 118.268 156.532L117.549 156.477H117.273L116.665 156.421C100.53 156.123 84.4879 153.904 68.8742 149.812C50.9529 144.758 41.3561 137.733 40.3053 128.874L40.25 128.125V127.986C40.9414 118.767 50.704 111.436 69.3719 106.188C85.2243 102.026 101.526 99.7568 117.909 99.4541ZM139.066 99.44H139.591L140.835 99.5234C156.97 99.8223 173.012 102.041 188.625 106.132C206.547 111.186 216.143 118.24 217.195 127.098L217.25 127.847V127.986C216.559 137.206 206.796 144.536 188.128 149.785C172.271 153.947 155.978 156.203 139.591 156.505H139.038C136.384 156.505 135.636 155.172 135.498 154.033C135.45 153.663 135.48 153.286 135.584 152.928C135.689 152.569 135.867 152.236 136.107 151.951C136.825 151.062 137.877 150.84 138.734 150.784L139.342 150.729L141.085 150.673L144.293 150.562L147.39 150.395L150.432 150.201L153.337 149.979L156.185 149.701L157.568 149.59L160.251 149.313C162.933 149.007 165.45 148.674 167.856 148.313L170.207 147.924L172.474 147.535L174.687 147.119L176.817 146.674L178.836 146.23L180.827 145.786L182.707 145.286L184.533 144.814L186.275 144.314L187.935 143.787L188.764 143.536L190.341 143.009C190.59 142.918 190.839 142.825 191.087 142.732L192.553 142.204L193.963 141.648L194.655 141.37L195.955 140.815C196.167 140.724 196.379 140.631 196.59 140.538L197.808 139.982L198.97 139.427L200.076 138.871L201.126 138.316L201.652 138.038L202.62 137.483L203.062 137.206L203.975 136.65L204.804 136.095L205.579 135.539L205.966 135.261C210.502 131.235 210.944 128.375 210.668 126.708L210.612 126.32L210.529 125.987L210.364 125.459C208.704 121.099 201.901 117.046 192.525 113.741L190.728 113.13L188.902 112.547L186.994 111.964C186.672 111.87 186.349 111.777 186.026 111.686L184.062 111.13L182.044 110.603L181.021 110.326L178.946 109.853L177.895 109.603L175.793 109.159L173.636 108.714L171.479 108.298L170.373 108.104L168.16 107.715L165.948 107.354L164.842 107.187L162.629 106.882L160.416 106.604L159.283 106.465L157.07 106.188C156.683 106.188 156.296 106.132 155.936 106.104L153.723 105.882L152.617 105.799L150.405 105.632L148.192 105.494C147.474 105.452 146.755 105.415 146.035 105.382L143.878 105.327L141.776 105.271H139.37C138.264 105.271 137.074 105.105 136.245 104.161C135.981 103.86 135.786 103.506 135.671 103.123C135.556 102.739 135.526 102.336 135.581 101.939C135.858 99.8566 137.655 99.44 139.066 99.44Z" fill="black"/>
</g>
</g>
<defs>
<linearGradient id="paint0_linear_340_1387" x1="128" y1="0" x2="128" y2="256" gradientUnits="userSpaceOnUse">
<stop offset="0.617756" stop-color="white"/>
<stop offset="0.879295" stop-color="#F7F7F7"/>
</linearGradient>
<clipPath id="clip0_340_1387">
<rect width="256" height="256" fill="white"/>
</clipPath>
</defs>
</svg>
