<svg viewBox="0 0 18 18" fill="none" xmlns="http://www.w3.org/2000/svg">
<rect width="18" height="18" rx="3" fill="#E81899" style="fill:#E81899;fill:color(display-p3 0.9098 0.0941 0.6000);fill-opacity:1;"/>
<path d="M15.3036 12.3088L13.0974 9.31133C12.8577 8.98562 12.5028 8.7905 12.1249 8.74749C12.0388 8.7375 11.962 8.68757 11.919 8.61229C11.8752 8.53701 11.8706 8.44559 11.9052 8.3657C12.0565 8.01695 12.0657 7.61212 11.9029 7.24186L10.4103 3.8327C10.1891 3.32647 9.68898 3 9.13666 3C8.58434 3 8.08426 3.32724 7.86302 3.8327L6.37046 7.24186C6.20837 7.61212 6.21682 8.01695 6.36816 8.3657C6.40272 8.44559 6.39735 8.53701 6.35433 8.61229C6.31054 8.68757 6.23449 8.7375 6.14846 8.74749C5.77051 8.7905 5.41562 8.98562 5.17595 9.31133L2.96975 12.3088C2.6425 12.7535 2.60947 13.3497 2.88525 13.8282C3.16179 14.306 3.6949 14.5757 4.24338 14.515L7.94215 14.1032C8.3439 14.0587 8.69035 13.849 8.9162 13.5432C8.96766 13.4733 9.04986 13.4318 9.13666 13.4318C9.22347 13.4318 9.30489 13.4733 9.35713 13.5432C9.58297 13.849 9.92942 14.0587 10.3312 14.1032L14.0299 14.515C14.5784 14.5764 15.1115 14.3068 15.3881 13.8282C15.6639 13.3497 15.6308 12.7535 15.3036 12.3088ZM7.33529 7.66974L8.83016 4.25673C8.88393 4.13459 9.00453 4.05547 9.13743 4.05547C9.27032 4.05547 9.39093 4.13459 9.4447 4.25673L10.9396 7.66974C10.9864 7.77728 10.9764 7.90172 10.9119 8.00005C10.8474 8.09838 10.7383 8.15753 10.62 8.15753H7.65408C7.53655 8.15753 7.4267 8.09838 7.36218 8.00005C7.29765 7.90172 7.28843 7.77728 7.33529 7.66974ZM8.1027 12.8657C8.04969 12.9709 7.94676 13.0416 7.82999 13.0547L4.12738 13.4664C3.99526 13.481 3.86621 13.4165 3.79937 13.3013C3.73254 13.186 3.74099 13.0424 3.82012 12.9348L6.02862 9.93432C6.09852 9.83983 6.21068 9.78606 6.32821 9.79298C6.44574 9.79912 6.55175 9.86441 6.6109 9.96658L6.6132 9.97042L8.09194 12.5315L8.09425 12.5354C8.1534 12.6375 8.15647 12.762 8.10346 12.8665L8.1027 12.8657ZM9.44086 11.7073C9.37787 11.8156 9.26264 11.8832 9.13666 11.8832C9.01145 11.8832 8.89545 11.8164 8.83246 11.708L7.69633 9.74074C7.63334 9.63243 7.63334 9.498 7.69633 9.38968C7.75932 9.28137 7.87455 9.21377 8.00053 9.21377H10.272C10.3972 9.21377 10.5132 9.27983 10.5762 9.38891C10.6392 9.49799 10.6392 9.63166 10.5762 9.73997L9.44086 11.7073ZM14.4747 13.3013C14.4079 13.4165 14.2796 13.4818 14.1467 13.4672L10.4441 13.0554C10.3273 13.0424 10.2244 12.9717 10.1714 12.8665C10.1184 12.7612 10.1215 12.6368 10.1806 12.5354L10.1829 12.5315L11.6617 9.97042L11.664 9.96658C11.7231 9.86441 11.8291 9.79912 11.9466 9.79298C12.0642 9.78683 12.1763 9.83983 12.2462 9.93432L14.4547 12.9348C14.5339 13.0424 14.5407 13.186 14.4747 13.3013Z" fill="white" style="fill:white;fill-opacity:1;"/>
</svg>
