<svg width="256" height="256" viewBox="0 0 256 256" fill="none" xmlns="http://www.w3.org/2000/svg">
<g clip-path="url(#clip0_340_1410)">
<path d="M42.667 3.55566H213.333C234.933 3.55566 252.444 21.0665 252.444 42.667V213.333C252.444 234.933 234.933 252.444 213.333 252.444H42.667C21.0665 252.444 3.55566 234.933 3.55566 213.333V42.667C3.55566 21.0665 21.0665 3.55566 42.667 3.55566Z" fill="#F7F9FD" stroke="#D6E0F5" stroke-width="7.11111"/>
<mask id="mask0_340_1410" style="mask-type:luminance" maskUnits="userSpaceOnUse" x="47" y="48" width="162" height="160">
<path d="M208.001 48H47.9987V208H208.001V48Z" fill="white"/>
</mask>
<g mask="url(#mask0_340_1410)">
<path d="M208.001 120.361C189.617 13.8481 50.5386 34.46 48.0569 120.361C56.0844 124.527 61.1255 127.057 61.1255 127.057C61.1255 127.057 56.8708 129.604 47.9987 135.273C64.0266 239.695 200.708 224.529 207.974 135.153C199.284 129.826 194.546 127.014 194.546 127.014C194.546 127.014 198.61 125.079 208.001 120.361ZM139.571 157.551L126.525 135.124L113.246 157.551L103.23 156.865L122.098 125.056L105.092 97.5949L115.343 96.6788L127.455 117.046L139.57 97.5949L149.121 97.8236L133.281 124.828L150.75 157.323L139.571 157.551Z" fill="#B7B5B1"/>
<path d="M201.511 116.241C176.588 21.5953 62.3647 47.2008 54.5409 116.241C70.3895 125.159 73.9856 127.255 73.9856 127.255C73.9856 127.255 67.8604 131.171 54.487 139.665C71.4892 230.653 194.733 213.168 201.486 139.555C189.049 131.758 181.711 127.216 181.711 127.216C181.711 127.216 198.482 117.842 201.511 116.241ZM139.568 157.672L126.524 135.25L113.247 157.672L103.232 156.986L122.098 125.182L105.096 97.7273L115.344 96.8113L127.455 117.174L139.568 97.7269L149.117 97.9556L133.278 124.953L150.746 157.442L139.568 157.672Z" fill="#244B81"/>
</g>
</g>
<defs>
<clipPath id="clip0_340_1410">
<rect width="256" height="256" fill="white"/>
</clipPath>
</defs>
</svg>
