<svg width="256" height="256" viewBox="0 0 256 256" fill="none" xmlns="http://www.w3.org/2000/svg">
<g clip-path="url(#clip0_340_1480)">
<path d="M42.667 3.55566H213.333C234.933 3.55566 252.444 21.0665 252.444 42.667V213.333C252.444 234.933 234.933 252.444 213.333 252.444H42.667C21.0665 252.444 3.55566 234.933 3.55566 213.333V42.667C3.55566 21.0665 21.0665 3.55566 42.667 3.55566Z" fill="#F5FFFA" stroke="#CCFFE6" stroke-width="7.11111"/>
<path d="M189.242 193.926L155.012 159.853H100.96L66.731 193.926L82.7917 209.914L117.021 175.84C119.956 172.919 123.824 171.326 127.986 171.326C132.148 171.326 136.017 172.919 138.951 175.84L173.181 209.914L189.242 193.926Z" fill="#00DE73"/>
<path d="M160.722 150.027L207.463 162.482L213.333 140.625L166.591 128.17C162.589 127.108 159.254 124.558 157.173 120.973C155.092 117.414 154.559 113.244 155.626 109.261L168.138 62.7316L146.181 56.8889L133.669 103.418L160.695 150L160.722 150.027Z" fill="#00DE73"/>
<path d="M48.5361 162.482L95.2781 150.027L95.3048 150L122.331 103.418L109.818 56.8889L87.8612 62.7316L100.374 109.261C101.441 113.244 100.907 117.414 98.8263 120.973C96.7454 124.558 93.4105 127.108 89.4086 128.17L42.6667 140.625L48.5361 162.482Z" fill="#00DE73"/>
</g>
<defs>
<clipPath id="clip0_340_1480">
<rect width="256" height="256" fill="white"/>
</clipPath>
</defs>
</svg>
