<svg width="256" height="256" viewBox="0 0 256 256" fill="none" xmlns="http://www.w3.org/2000/svg">
<g clip-path="url(#clip0_340_1494)">
<path d="M42.667 3.55566H213.333C234.933 3.55566 252.444 21.0665 252.444 42.667V213.333C252.444 234.933 234.933 252.444 213.333 252.444H42.667C21.0665 252.444 3.55566 234.933 3.55566 213.333V42.667C3.55566 21.0665 21.0665 3.55566 42.667 3.55566Z" fill="#FFFAF5" stroke="#FFE4CC" stroke-width="7.11111"/>
<mask id="mask0_340_1494" style="mask-type:luminance" maskUnits="userSpaceOnUse" x="42" y="28" width="178" height="200">
<path d="M219.156 28.4445H42.6667V227.556H219.156V28.4445Z" fill="white"/>
</mask>
<g mask="url(#mask0_340_1494)">
<path d="M130.911 40.7945C131.399 40.7945 131.848 40.9176 132.298 41.159L205.462 83.3879C206.318 83.8754 206.848 84.7748 206.848 85.7499V170.203C206.848 171.183 206.318 172.078 205.462 172.565L132.298 214.831C131.891 215.077 131.404 215.196 130.911 215.196C130.419 215.196 129.974 215.073 129.524 214.831L56.4036 172.612C55.5469 172.124 55.0167 171.226 55.0167 170.25V85.7546C55.0167 84.7748 55.5469 83.8801 56.4036 83.3926L129.524 41.1638C129.974 40.9176 130.419 40.7945 130.911 40.7945ZM130.911 28.4492C128.303 28.4492 125.695 29.1404 123.371 30.4893L50.2073 72.7087C45.5589 75.3974 42.6667 80.3725 42.6667 85.7546V170.207C42.6667 175.589 45.5589 180.56 50.2073 183.292L123.371 225.52C125.695 226.864 128.303 227.56 130.911 227.56C133.519 227.56 136.128 226.869 138.452 225.52L211.615 183.292C216.302 180.602 219.156 175.627 219.156 170.207V85.7546C219.156 80.3725 216.263 75.4021 211.615 72.6709L138.452 30.4421C136.128 29.0977 133.519 28.4492 130.911 28.4492Z" fill="#FF7700"/>
<path d="M112.24 84.7327H102.702C101.968 84.7327 101.357 85.1824 101.111 85.8736L70.3377 170.123C70.1341 170.695 70.5412 171.264 71.1518 171.264H80.6901C81.4238 171.264 82.0345 170.815 82.2807 170.123L113.011 85.8309C113.258 85.3007 112.855 84.7327 112.24 84.7327Z" fill="#FF7700"/>
<path d="M124.632 117.425C124.348 116.692 123.287 116.692 123.041 117.425L118.066 131.039C117.943 131.404 117.943 131.815 118.066 132.223L131.926 170.172C132.173 170.863 132.821 171.312 133.517 171.312H143.055C143.666 171.312 144.073 170.741 143.869 170.172L124.632 117.425Z" fill="#FF7700"/>
<path d="M128.954 84.7327H119.416C118.682 84.7327 118.071 85.1824 117.825 85.8736L87.0946 170.123C86.8911 170.695 87.2981 171.264 87.9089 171.264H97.4471C98.1809 171.264 98.7914 170.815 99.0376 170.123L129.768 85.8309C129.972 85.3007 129.565 84.7327 128.954 84.7327Z" fill="#FF7700"/>
<path d="M132.986 94.4739C132.702 93.7402 131.642 93.7402 131.396 94.4739L126.426 108.088C126.303 108.452 126.303 108.864 126.426 109.271L148.641 170.128C148.887 170.817 149.535 171.268 150.231 171.268H159.77C160.38 171.268 160.787 170.695 160.583 170.128L132.986 94.4739Z" fill="#FF7700"/>
<path d="M190.662 84.7327H181.123C180.389 84.7327 179.779 85.1824 179.533 85.8736L157.279 146.729C157.157 147.093 157.157 147.506 157.279 147.913L162.254 161.526C162.539 162.26 163.6 162.26 163.846 161.526L191.438 85.8783C191.642 85.3055 191.233 84.7327 190.662 84.7327Z" fill="#FF7700"/>
<path d="M153.896 138.578C154.179 139.312 155.24 139.312 155.486 138.578L174.723 85.8736C174.926 85.3007 174.52 84.7327 173.909 84.7327H164.371C163.637 84.7327 163.027 85.1824 162.78 85.8736L148.921 123.823C148.797 124.188 148.797 124.599 148.921 125.007L153.896 138.578Z" fill="#FF7700"/>
</g>
</g>
<defs>
<clipPath id="clip0_340_1494">
<rect width="256" height="256" fill="white"/>
</clipPath>
</defs>
</svg>
