<svg viewBox="0 0 12 12" fill="none" xmlns="http://www.w3.org/2000/svg">
<g clip-path="url(#clip0_469_17139)">
<rect width="12" height="12" rx="2" fill="#E84142" style="fill:#E84142;fill:color(display-p3 0.9098 0.2549 0.2588);fill-opacity:1;"/>
<g clip-path="url(#clip1_469_17139)">
<path d="M6 12C9.31371 12 12 9.31371 12 6C12 2.68629 9.31371 0 6 0C2.68629 0 0 2.68629 0 6C0 9.31371 2.68629 12 6 12Z" fill="#E84142" style="fill:#E84142;fill:color(display-p3 0.9098 0.2549 0.2588);fill-opacity:1;"/>
<path fill-rule="evenodd" clip-rule="evenodd" d="M4.31925 8.53149H3.18375C2.94525 8.53149 2.8275 8.53149 2.7555 8.48536C2.71756 8.46061 2.68598 8.42727 2.66331 8.38806C2.64064 8.34884 2.62752 8.30484 2.625 8.25961C2.6205 8.17486 2.67937 8.07099 2.7975 7.86399L5.5995 2.91661C5.71875 2.70661 5.7795 2.60161 5.85525 2.56261C5.89579 2.542 5.94063 2.53125 5.98612 2.53125C6.03161 2.53125 6.07645 2.542 6.117 2.56261C6.19312 2.60161 6.2535 2.70661 6.37275 2.91661L6.94875 3.92386L6.95175 3.92911C7.08037 4.15411 7.14562 4.26886 7.17412 4.38886C7.206 4.52021 7.206 4.65727 7.17412 4.78861C7.14562 4.90974 7.08075 5.02486 6.95025 5.25361L5.478 7.85986L5.47425 7.86624C5.3445 8.09349 5.27925 8.20861 5.18775 8.29561C5.08927 8.38991 4.96971 8.45933 4.839 8.49811C4.71937 8.53149 4.58625 8.53149 4.31925 8.53149ZM7.18537 8.53149H8.81137C9.05137 8.53149 9.17212 8.53149 9.24412 8.48424C9.28234 8.45934 9.31411 8.42572 9.3368 8.38615C9.35949 8.34658 9.37245 8.30218 9.37462 8.25661C9.37875 8.17449 9.32137 8.07511 9.2085 7.87974L9.1965 7.85949L8.382 6.46374L8.37262 6.44799C8.25825 6.25411 8.20012 6.15624 8.12625 6.11836C8.08601 6.09782 8.04148 6.08711 7.99631 6.08711C7.95113 6.08711 7.9066 6.09782 7.86637 6.11836C7.79137 6.15736 7.73137 6.25974 7.61212 6.46524L6.80025 7.86099L6.79762 7.86586C6.67875 8.07136 6.61912 8.17374 6.62362 8.25811C6.62612 8.30355 6.63922 8.34777 6.66188 8.38724C6.68454 8.4267 6.71613 8.46031 6.75412 8.48536C6.82462 8.53149 6.94537 8.53149 7.18537 8.53149Z" fill="white" style="fill:white;fill-opacity:1;"/>
</g>
</g>
<defs>
<clipPath id="clip0_469_17139">
<rect width="12" height="12" rx="2" fill="white" style="fill:white;fill-opacity:1;"/>
</clipPath>
<clipPath id="clip1_469_17139">
<rect width="12" height="12" fill="white" style="fill:white;fill-opacity:1;"/>
</clipPath>
</defs>
</svg>
