<svg width="256" height="256" viewBox="0 0 256 256" fill="none" xmlns="http://www.w3.org/2000/svg">
<g clip-path="url(#clip0_340_1474)">
<path d="M213.333 0H42.6667C19.1025 0 0 19.1025 0 42.6667V213.333C0 236.897 19.1025 256 42.6667 256H213.333C236.897 256 256 236.897 256 213.333V42.6667C256 19.1025 236.897 0 213.333 0Z" fill="#814625"/>
<path d="M122.5 124.375C122.338 123.885 122.224 123.383 122.137 122.876C122.097 122.641 122.05 122.406 121.997 122.174C121.881 121.669 121.752 121.168 121.614 120.668C123.914 117.315 134.908 99.8225 122.397 88.5958C108.511 76.1357 92.2858 92.4674 92.2858 92.4674L92.3361 92.5398C85.0436 90.4053 77.1363 90.155 69.4434 92.4665C69.3484 92.3711 53.1766 76.1721 39.3315 88.5958C25.4816 101.023 40.4372 121.129 40.5151 121.234C40.3561 121.706 40.2275 122.19 40.1427 122.68C38.6443 131.283 28.4445 133.939 28.4445 148.926C28.4445 163.912 39.1149 176.239 60.8945 176.239H69.8314C69.8715 176.294 73.5523 181.317 81.1079 181.311C88.122 181.306 92.7541 176.282 92.7942 176.239H101.322C123.101 176.239 133.772 164.201 133.772 148.926C133.772 134.969 124.926 131.707 122.5 124.375Z" fill="white"/>
<path d="M226.581 107.253C226.581 107.253 228.201 92.8083 215.889 89.7046V83.9115H206.354V89.5599C193.366 92.3272 195.039 107.253 195.039 107.253V109.729C195.039 109.729 193.365 124.658 206.358 127.422L206.357 139.822C192.667 142.224 194.397 157.64 194.397 157.64V160.116C194.397 160.116 192.722 175.042 205.711 177.808V183.457H215.246V177.664C227.559 174.56 225.938 160.116 225.938 160.116C226.477 160.116 226.913 159.696 226.913 159.178V158.579C226.913 158.06 226.477 157.64 225.938 157.64C225.938 157.64 227.545 143.321 215.405 140.134V127.422H215.262C228.255 124.658 226.581 109.729 226.581 109.729C227.119 109.729 227.555 109.309 227.555 108.79V108.191C227.555 107.673 227.119 107.253 226.581 107.253ZM218.811 157.64H217.938C217.401 157.64 216.964 158.06 216.964 158.579V159.178C216.964 159.696 217.401 160.116 217.938 160.116H218.811C218.811 169.076 215.722 170.584 214.682 170.838C214.511 170.879 214.345 170.757 214.345 170.587V167.732C214.345 166.153 213.301 165.288 212.256 164.817C210.936 164.223 209.398 164.223 208.078 164.817C207.034 165.288 205.989 166.153 205.989 167.732V170.587C205.989 170.755 205.826 170.88 205.658 170.839C204.625 170.589 201.524 169.094 201.524 160.116V157.64C201.524 148.68 204.613 147.172 205.653 146.919C205.823 146.877 205.989 146.999 205.989 147.168V150.025C205.989 151.603 207.034 152.468 208.078 152.939C209.398 153.533 210.936 153.533 212.256 152.939C213.301 152.468 214.345 151.603 214.345 150.025V147.168C214.345 147.002 214.508 146.876 214.676 146.917C215.71 147.167 218.811 148.663 218.811 157.64ZM218.581 109.729H219.453C219.453 118.706 216.353 120.203 215.319 120.452C215.151 120.493 214.988 120.367 214.988 120.2V117.344C214.988 115.766 213.944 114.9 212.899 114.43C211.579 113.836 210.041 113.836 208.721 114.43C207.676 114.9 206.632 115.766 206.632 117.344V120.2C206.632 120.37 206.466 120.492 206.295 120.45C205.256 120.197 202.167 118.689 202.167 109.729V107.253C202.167 98.2751 205.267 96.7786 206.301 96.5297C206.469 96.4891 206.632 96.615 206.632 96.7814V99.6371C206.632 101.216 207.676 102.081 208.721 102.551C210.041 103.146 211.579 103.146 212.899 102.551C213.944 102.081 214.988 101.216 214.988 99.6371V96.7814C214.988 96.6117 215.154 96.4896 215.325 96.5311C216.364 96.785 219.453 98.2927 219.453 107.253H218.581C218.043 107.253 217.607 107.673 217.607 108.191V108.79C217.607 109.309 218.043 109.729 218.581 109.729Z" fill="white"/>
<path d="M178.866 132.761C178.866 132.761 180.55 117.748 167.439 115.045V101.558C180.201 98.6771 178.545 83.9115 178.545 83.9115C178.545 83.9115 171.388 83.9115 171.417 83.9115C171.417 92.889 168.317 94.3851 167.283 94.634C167.115 94.675 166.952 94.5492 166.952 94.3828V91.5266C166.952 89.948 165.907 89.0833 164.863 88.6127C163.543 88.0182 162.005 88.0182 160.685 88.6127C159.64 89.0833 158.596 89.948 158.596 91.5266V94.3828C158.596 94.5524 158.43 94.6746 158.259 94.6331C157.219 94.3791 154.13 92.8715 154.13 83.9115C154.16 83.9115 147.003 83.9115 147.003 83.9115C147.003 83.9115 145.284 99.2338 158.839 101.707V115.026C145.633 117.681 147.324 132.76 147.324 132.76V135.236C147.324 135.236 145.633 150.315 158.839 152.97V165.671C145.284 168.144 147.003 183.465 147.003 183.465C147.003 183.465 154.16 183.465 154.13 183.465C154.13 174.488 157.231 172.992 158.265 172.743C158.433 172.702 158.596 172.827 158.596 172.994V175.85C158.596 177.429 159.64 178.294 160.685 178.764C162.005 179.359 163.543 179.359 164.863 178.764C165.907 178.294 166.952 177.429 166.952 175.85V172.994C166.952 172.824 167.118 172.703 167.289 172.744C168.328 172.998 171.417 174.505 171.417 183.465C171.387 183.465 178.545 183.465 178.545 183.465C178.545 183.465 180.201 168.7 167.439 165.819V152.951C180.55 150.247 178.866 135.236 178.866 135.236C179.405 135.236 179.841 134.815 179.841 134.297V133.698C179.841 133.18 179.405 132.761 178.866 132.761ZM170.866 135.237H171.738C171.738 144.214 168.638 145.711 167.604 145.959C167.436 146.001 167.273 145.875 167.273 145.708V142.852C167.273 141.273 166.229 140.408 165.184 139.938C163.864 139.344 162.326 139.344 161.006 139.938C159.961 140.408 158.917 141.273 158.917 142.852V145.708C158.917 145.878 158.751 146 158.58 145.958C157.541 145.704 154.452 144.197 154.452 135.237V132.761C154.452 123.783 157.552 122.286 158.586 122.038C158.754 121.997 158.917 122.122 158.917 122.289V125.145C158.917 126.724 159.961 127.589 161.006 128.059C162.326 128.654 163.864 128.654 165.184 128.059C166.229 127.589 167.273 126.724 167.273 125.145V122.289C167.273 122.12 167.439 121.997 167.61 122.039C168.649 122.293 171.738 123.801 171.738 132.761H170.866C170.328 132.761 169.892 133.181 169.892 133.699V134.298C169.892 134.817 170.328 135.237 170.866 135.237Z" fill="white"/>
</g>
<defs>
<clipPath id="clip0_340_1474">
<rect width="256" height="256" fill="white"/>
</clipPath>
</defs>
</svg>
