<svg width="256" height="256" viewBox="0 0 256 256" fill="none" xmlns="http://www.w3.org/2000/svg">
<rect width="256" height="256" rx="42.6667" fill="#F0B90B"/>
<path d="M67.3869 129.422L67.484 165.007L97.7204 182.799V203.633L49.7886 175.52V119.016L67.3869 129.422ZM67.3869 93.8368V114.573L49.7778 104.156V83.4201L67.3869 73.0034L85.0824 83.4201L67.3869 93.8368ZM110.348 83.4201L127.957 73.0034L145.652 83.4201L127.957 93.8368L110.348 83.4201Z" fill="white"/>
<path d="M80.1113 157.631V136.798L97.7205 147.214V167.951L80.1113 157.631ZM110.348 190.261L127.957 200.678L145.652 190.261V210.998L127.957 221.414L110.348 210.998V190.261ZM170.907 83.4201L188.516 73.0034L206.212 83.4201V104.156L188.516 114.573V93.8368L170.907 83.4201ZM188.516 165.007L188.613 129.422L206.222 119.005V175.51L158.29 203.622V182.788L188.516 165.007Z" fill="white"/>
<path d="M175.889 157.632L158.28 167.952V147.215L175.889 136.799V157.632Z" fill="white"/>
<path d="M175.889 101.214L175.986 122.047L145.663 139.84V175.511L128.054 185.831L110.445 175.511V139.84L80.1221 122.047V101.214L97.8068 90.7973L127.946 108.676L158.269 90.7973L175.964 101.214H175.889ZM80.1113 65.6398L127.957 37.4307L175.889 65.6398L158.28 76.0565L127.957 58.1778L97.7205 76.0565L80.1113 65.6398Z" fill="white"/>
</svg>
