<svg width="256" height="256" viewBox="0 0 256 256" fill="none" xmlns="http://www.w3.org/2000/svg">
<g clip-path="url(#clip0_350_120)">
<path d="M36.5713 3.55566H219.429C237.663 3.55573 252.444 18.3372 252.444 36.5713V219.429C252.444 237.663 237.663 252.444 219.429 252.444H36.5713C18.3372 252.444 3.55573 237.663 3.55566 219.429V36.5713L3.56641 35.7197C4.01099 18.1622 18.1622 4.01099 35.7197 3.56641L36.5713 3.55566Z" fill="url(#paint0_linear_350_120)" stroke="#E9ECEF" stroke-width="7.11111"/>
<path d="M222.03 108.704C220.758 102.527 218.878 96.4915 216.417 90.685C213.992 84.9658 211.025 79.4919 207.556 74.3383C204.117 69.2468 200.194 64.4995 195.841 60.1626C191.502 55.8097 186.752 51.8863 181.657 48.4473C176.496 44.9961 171.027 42.0298 165.319 39.5865C153.515 34.58 140.824 32 128.002 32C115.18 32 102.489 34.58 90.685 39.5865C79.2708 44.4009 68.9037 51.3925 60.1626 60.1706C55.8105 64.505 51.8872 69.2496 48.4473 74.3383C44.9956 79.5021 42.0294 84.9744 39.5865 90.685C34.58 102.489 32 115.18 32 128.002C32 140.824 34.58 153.515 39.5865 165.319C41.9504 171.028 45.0059 176.439 48.4473 181.657C51.887 186.751 55.8102 191.501 60.1626 195.841C64.502 200.194 69.252 204.117 74.3463 207.556C79.4602 210.998 84.9761 213.957 90.685 216.417C102.489 221.424 115.18 224.004 128.002 224.004C140.824 224.004 153.515 221.424 165.319 216.417C171.028 214.053 176.439 210.998 181.657 207.556C186.752 204.117 191.502 200.194 195.841 195.841C200.194 191.502 204.117 186.752 207.556 181.657C210.998 176.543 213.957 171.028 216.417 165.319C223.992 147.454 225.949 127.708 222.03 108.704ZM128.09 211.987C81.7196 211.987 44.2098 174.372 44.2098 128.098C44.2098 81.8242 81.8242 44.2099 128.09 44.2099C174.364 44.2099 211.979 81.8242 211.979 128.098C211.979 174.372 174.372 211.987 128.09 211.987Z" fill="black"/>
<path d="M129.578 204.702H131.846C132.24 204.702 132.626 204.702 133.02 204.598H133.124C133.518 204.598 133.808 204.598 134.202 204.501H134.499C134.797 204.501 135.094 204.501 135.384 204.405H135.681C135.979 204.405 136.276 204.308 136.67 204.308H136.863C137.257 204.308 137.651 204.204 138.045 204.204C138.439 204.204 138.737 204.107 139.131 204.011H139.324C139.621 204.011 139.919 203.914 140.208 203.914H140.409C140.803 203.81 141.101 203.81 141.495 203.713C142.274 203.617 143.062 203.416 143.754 203.223H143.955C144.244 203.126 144.638 203.126 144.936 203.022H145.032C145.82 202.829 146.512 202.628 147.3 202.435C139.925 202.668 132.55 201.974 125.349 200.368C114.51 198.004 104.178 193.775 95.4134 186.482C88.5039 180.732 82.9588 173.518 79.1791 165.362C75.3995 157.206 73.4797 148.312 73.5588 139.323C73.6297 125.913 78.4013 112.953 87.043 102.698C98.2678 89.4067 114.221 82.4113 130.559 82.0173H132.827V68.9271H130.27C125.299 69.0181 120.351 69.6108 115.499 70.696C110.617 71.8 105.865 73.4171 101.323 75.5204C96.6918 77.6914 92.3579 80.3448 88.3215 83.4003C84.1504 86.571 80.3524 90.2044 77.0002 94.2311C73.8439 97.9577 71.1045 102.018 68.8309 106.34C66.5815 110.507 64.7655 114.893 63.4114 119.431C62.0832 123.898 61.1945 128.484 60.758 133.124L60.4605 137.45V140.007C60.557 145.032 61.152 149.953 62.2295 154.777C63.315 159.706 64.9874 164.426 67.0539 168.961C69.5224 174.373 73.9528 182.349 80.5461 188.355C94.0087 198.968 110.659 204.728 127.801 204.702H129.578Z" fill="black"/>
<path d="M151.039 192.094C146.182 191.921 141.345 191.394 136.565 190.518C116.287 186.876 98.8546 174.469 92.4622 155.766C84.6789 133.019 96.5952 108.407 119.238 100.929C123.553 99.4827 128.075 98.7494 132.625 98.7578C138.439 98.7578 144.244 99.9398 149.567 102.103L155.075 90.3874C153.419 89.7233 151.746 89.1013 150.058 88.522C144.417 86.7515 138.538 85.8539 132.625 85.8605C126.702 85.8716 120.819 86.8354 115.201 88.715C108.032 91.0796 101.429 94.9012 95.8072 99.9398C93.0959 102.355 90.624 105.026 88.4258 107.916C86.2528 110.773 84.3726 113.841 82.8134 117.074C79.6386 123.575 77.7648 130.633 77.2975 137.852C76.807 145.329 77.788 152.807 80.2484 159.899C82.7554 167.195 86.7844 173.874 92.0682 179.494C96.8927 184.713 102.505 188.653 109.291 192.295C116.383 196.034 125.148 198.004 134.298 199.29C140.208 200.07 148.088 200.271 152.711 200.271C156.748 198.792 158.42 198.1 160.591 197.216C162.464 196.331 164.33 195.447 166.203 194.362C168.077 193.276 168.374 193.075 171.518 191.017C171.798 190.842 172.062 190.643 172.306 190.422C161.475 192.295 158.717 192.191 151.039 192.094Z" fill="black"/>
<path d="M175.265 177.428C172.21 177.621 167.876 177.91 162.955 177.91C154.191 177.91 143.456 177.13 134.306 174.075C120.122 169.355 106.734 157.246 106.734 142.274C106.731 138.73 107.427 135.221 108.781 131.947C110.136 128.672 112.123 125.697 114.629 123.191C117.134 120.686 120.109 118.699 123.384 117.344C126.658 115.99 130.167 115.294 133.711 115.297C143.85 115.297 152.615 120.91 157.246 129.079L168.961 123.274C167.124 119.815 164.765 116.661 161.966 113.922C158.257 110.207 153.852 107.26 149.003 105.249C144.154 103.238 138.956 102.203 133.707 102.203C128.457 102.203 123.26 103.238 118.411 105.249C113.562 107.26 109.157 110.207 105.448 113.922C101.734 117.631 98.7878 122.035 96.7776 126.884C94.7673 131.732 93.7326 136.929 93.7327 142.177C93.7589 147.678 94.9367 153.112 97.1902 158.13C99.2486 162.657 102.111 166.894 105.753 170.834C112.154 177.717 120.91 183.233 130.27 186.385C139.227 189.336 152.422 190.421 165.222 189.537C168.76 189.239 171.422 188.942 175.949 187.961C180.317 184.513 184.282 180.583 187.768 176.246C184.713 176.543 179.101 177.13 175.265 177.428Z" fill="black"/>
</g>
<defs>
<linearGradient id="paint0_linear_350_120" x1="128" y1="0" x2="128" y2="256" gradientUnits="userSpaceOnUse">
<stop offset="0.617756" stop-color="white"/>
<stop offset="0.879295" stop-color="#F7F7F7"/>
</linearGradient>
<clipPath id="clip0_350_120">
<rect width="256" height="256" fill="white"/>
</clipPath>
</defs>
</svg>
