<svg viewBox="0 0 12 12" fill="none" xmlns="http://www.w3.org/2000/svg">
<g clip-path="url(#clip0_1053_14786)">
<rect width="12" height="12" rx="2" fill="black" style="fill:black;fill-opacity:1;"/>
<g clip-path="url(#clip1_1053_14786)">
<path d="M6 10C5.4601 10 4.93629 9.89417 4.44295 9.6856C3.96656 9.48409 3.53898 9.19565 3.17152 8.82848C2.80435 8.4613 2.51591 8.03344 2.3144 7.55705C2.10584 7.06371 2 6.5399 2 6C2 5.4601 2.10584 4.93629 2.3144 4.44295C2.51591 3.96656 2.80435 3.53898 3.17152 3.17152C3.5387 2.80435 3.96656 2.51591 4.44295 2.3144C4.93629 2.10584 5.4601 2 6 2C6.5399 2 7.06371 2.10584 7.55705 2.3144C8.03344 2.51591 8.46102 2.80435 8.82848 3.17152C9.19565 3.5387 9.48409 3.96656 9.6856 4.44295C9.89417 4.93629 10 5.4601 10 6C10 6.5399 9.89417 7.06371 9.6856 7.55705C9.48409 8.03344 9.19565 8.46102 8.82848 8.82848C8.4613 9.19565 8.03344 9.48409 7.55705 9.6856C7.06371 9.89417 6.5399 10 6 10Z" fill="white" style="fill:white;fill-opacity:1;"/>
<path d="M5.99996 9.78801C8.09204 9.78801 9.78801 8.09204 9.78801 5.99996C9.78801 3.90788 8.09204 2.21191 5.99996 2.21191C3.90788 2.21191 2.21191 3.90788 2.21191 5.99996C2.21191 8.09204 3.90788 9.78801 5.99996 9.78801Z" fill="black" style="fill:black;fill-opacity:1;"/>
<path d="M8.62926 4.73796H7.90422C7.85476 4.57881 7.76729 4.43409 7.64937 4.31632C7.52942 4.19637 7.38492 4.10944 7.22772 4.0609V3.33643H6.71266V4.03832C6.52994 4.07792 6.36255 4.16946 6.23061 4.30192L5.88743 4.64511C5.78695 4.74558 5.78695 4.90871 5.88743 5.00947C5.9879 5.10994 6.15102 5.10994 6.25178 5.00947L6.59497 4.66628C6.68415 4.57709 6.80466 4.52912 6.93364 4.53053C7.06544 4.53222 7.19018 4.58556 7.28529 4.68067C7.47947 4.87484 7.48596 5.18473 7.29969 5.371L6.57803 6.09265C6.39176 6.27892 6.08188 6.27243 5.88771 6.07826C5.78723 5.97779 5.62411 5.97779 5.52335 6.07826C5.42288 6.17873 5.42288 6.34186 5.52335 6.44261C5.72345 6.64271 5.98564 6.74319 6.24614 6.74319C6.49958 6.74319 6.75132 6.64807 6.94239 6.45701L7.66404 5.73535C7.80092 5.59847 7.88813 5.43055 7.92708 5.25331H8.62982V4.73825L8.62926 4.73796Z" fill="white" style="fill:white;fill-opacity:1;"/>
<path d="M5.70784 6.96278L5.36465 7.30596C5.17838 7.49223 4.86878 7.48574 4.67432 7.29157C4.48015 7.0974 4.47366 6.78751 4.65993 6.60124L5.38158 5.87959C5.56785 5.69332 5.87774 5.69981 6.07191 5.89398C6.17238 5.99446 6.33551 5.99446 6.43627 5.89398C6.53674 5.79351 6.53674 5.63038 6.43627 5.52963C6.04115 5.13451 5.40473 5.12802 5.01751 5.51523L4.29586 6.23689C4.15898 6.37377 4.07177 6.54169 4.03282 6.71893H3.33008V7.234H4.05512C4.10458 7.39315 4.19205 7.53787 4.30997 7.65564C4.43217 7.77785 4.57752 7.8628 4.73162 7.91049V8.63582H5.24668V7.93307C5.4242 7.89441 5.59213 7.80692 5.72872 7.67004L6.07191 7.32685C6.17238 7.22638 6.17238 7.06325 6.07191 6.96249C5.97144 6.86202 5.80831 6.86202 5.70756 6.96249L5.70784 6.96278Z" fill="white" style="fill:white;fill-opacity:1;"/>
</g>
</g>
<defs>
<clipPath id="clip0_1053_14786">
<rect width="12" height="12" rx="2" fill="white" style="fill:white;fill-opacity:1;"/>
</clipPath>
<clipPath id="clip1_1053_14786">
<rect width="8" height="8" fill="white" style="fill:white;fill-opacity:1;" transform="translate(2 2)"/>
</clipPath>
</defs>
</svg>
