<svg width="256" height="256" viewBox="0 0 256 256" fill="none" xmlns="http://www.w3.org/2000/svg">
<g clip-path="url(#clip0_17372_7163)">
<path d="M128 256C198.692 256 256 198.692 256 128C256 57.3076 198.692 0 128 0C57.3076 0 0 57.3076 0 128C0 198.692 57.3076 256 128 256Z" fill="#102623"/>
<path d="M220.094 126.859C220.262 141.968 217.099 156.405 210.886 170.199C202.013 189.84 180.742 205.9 161.317 188.805C145.475 174.871 142.536 146.584 118.802 142.443C87.3983 138.638 86.6426 175.039 66.1267 179.152C43.2597 183.797 35.6747 145.353 36.0106 127.894C36.3465 110.435 40.9926 85.8971 60.8648 85.8971C83.7317 85.8971 85.2711 120.507 114.296 118.633C143.04 116.674 143.544 80.6649 162.324 65.2484C178.53 51.9302 197.591 61.695 207.135 77.7271C215.979 92.5561 219.87 109.959 220.066 126.859H220.094Z" fill="#AFF9E5"/>
</g>
<defs>
<clipPath id="clip0_17372_7163">
<rect width="256" height="256" fill="white"/>
</clipPath>
</defs>
</svg>
