<svg viewBox="0 0 12 12" fill="none" xmlns="http://www.w3.org/2000/svg">
<g clip-path="url(#clip0_1064_3644)">
<rect width="12" height="12" rx="2" fill="black" style="fill:black;fill-opacity:1;"/>
<g clip-path="url(#clip1_1064_3644)">
<path d="M3.64664 4.80497L2.43348 4.18726C2.33829 4.37358 2.25829 4.56902 2.19348 4.76852L3.48867 5.18776C3.5312 5.05611 3.58386 4.92751 3.64664 4.80497Z" fill="white" style="fill:white;fill-opacity:1;"/>
<path d="M4.67643 3.71639L5.34884 4.87386C5.44706 4.81715 5.55237 4.77361 5.66072 4.74424L5.31337 3.45209C5.4015 3.4288 5.49163 3.40855 5.58275 3.39437L5.36909 2.04956C5.1625 2.08197 4.95693 2.13159 4.75845 2.1964L5.17366 3.47032C5.04098 3.51386 4.91237 3.56753 4.78883 3.63032L4.1782 2.43842C3.99288 2.53361 3.81263 2.64399 3.64453 2.76753L4.44757 3.86728C4.52048 3.81259 4.59744 3.76297 4.67643 3.71639Z" fill="white" style="fill:white;fill-opacity:1;"/>
<path d="M8.28247 4.67552L7.125 5.34793C7.18172 5.44615 7.22628 5.55146 7.25562 5.65983L8.54778 5.31146C8.57209 5.39958 8.59131 5.48971 8.6055 5.57983L9.95031 5.36615C9.91791 5.15958 9.86828 4.954 9.80247 4.75552L8.52956 5.17174C8.486 5.03907 8.43234 4.91046 8.36956 4.78691L9.56144 4.17527C9.46625 3.98995 9.35587 3.8097 9.23234 3.6416L8.13359 4.44464C8.18625 4.51957 8.23588 4.59654 8.28247 4.67552Z" fill="white" style="fill:white;fill-opacity:1;"/>
<path d="M7.81066 2.43238C7.62431 2.33719 7.42888 2.25719 7.22938 2.19238L6.81116 3.48757C6.94178 3.5301 7.07041 3.58276 7.19394 3.64554L7.81066 2.43238Z" fill="white" style="fill:white;fill-opacity:1;"/>
<path d="M7.32647 3.69319L6.64697 4.87293C6.74519 4.92964 6.83635 4.99952 6.91635 5.07952L8.82216 3.16661C8.67432 3.01876 8.51332 2.88205 8.34519 2.75952L7.55938 3.84407C7.48444 3.78939 7.40747 3.73876 7.32647 3.69319Z" fill="white" style="fill:white;fill-opacity:1;"/>
<path d="M3.69315 4.67127L4.87189 5.35176C4.92859 5.25354 4.99847 5.16241 5.07847 5.08139L3.16759 3.17456C3.01974 3.32241 2.88303 3.48342 2.7605 3.65152L3.84404 4.43835C3.79037 4.51329 3.73974 4.59127 3.69315 4.67127Z" fill="white" style="fill:white;fill-opacity:1;"/>
<path d="M6.41228 3.37113L6.61788 2.04759C6.41431 2.0162 6.20672 2 5.99913 2H5.99609V4.69974H5.99913C6.11256 4.69974 6.22597 4.71392 6.33431 4.74328L6.68369 3.42784C6.59456 3.40354 6.50444 3.38531 6.41228 3.37113Z" fill="white" style="fill:white;fill-opacity:1;"/>
<path d="M4.74328 5.66483L3.42784 5.31445C3.40455 5.40355 3.38531 5.4947 3.37113 5.58583L2.04759 5.37923C2.0162 5.5828 2 5.79242 2 6.00002H4.69974C4.69974 5.88558 4.71493 5.77317 4.74328 5.66483Z" fill="white" style="fill:white;fill-opacity:1;"/>
<path d="M8.35339 7.19504L9.56655 7.81276C9.66174 7.62641 9.74174 7.43097 9.80655 7.23147L8.51136 6.81226C8.46883 6.94388 8.41617 7.07251 8.35339 7.19504Z" fill="white" style="fill:white;fill-opacity:1;"/>
<path d="M7.32255 8.28244L6.65114 7.125C6.55292 7.18169 6.44761 7.22525 6.33923 7.25459L6.68658 8.54675C6.59848 8.57003 6.50836 8.59031 6.41723 8.60447L6.63089 9.94928C6.83748 9.91687 7.04305 9.86725 7.24151 9.80244L6.82633 8.52853C6.95898 8.48497 7.08761 8.43131 7.21114 8.36853L7.82176 9.56044C8.00708 9.46525 8.18736 9.35484 8.35545 9.23131L7.55342 8.13156C7.47948 8.18725 7.40255 8.23687 7.32255 8.28244Z" fill="white" style="fill:white;fill-opacity:1;"/>
<path d="M3.71753 7.32461L4.87499 6.65221C4.81828 6.55399 4.77373 6.44868 4.74436 6.34033L3.45221 6.68868C3.42791 6.60058 3.40867 6.51046 3.39449 6.42033L2.04968 6.63399C2.08209 6.84058 2.13171 7.04614 2.19753 7.24461L3.47044 6.82843C3.51398 6.96008 3.56765 7.08968 3.63044 7.21324L2.43854 7.82486C2.53373 8.01021 2.64411 8.19046 2.76766 8.35855L3.86639 7.55552C3.81373 7.48058 3.76411 7.40361 3.71753 7.32461Z" fill="white" style="fill:white;fill-opacity:1;"/>
<path d="M4.18933 9.56765C4.37566 9.66287 4.5711 9.74287 4.77059 9.80765L5.18881 8.51246C5.05819 8.46993 4.92958 8.41727 4.80604 8.35449L4.18933 9.56765Z" fill="white" style="fill:white;fill-opacity:1;"/>
<path d="M4.67245 8.30672L5.35194 7.12697C5.25372 7.07029 5.16256 7.00041 5.08258 6.92041L3.17676 8.83332C3.32461 8.98116 3.48562 9.11788 3.65372 9.24041L4.43954 8.15585C4.51448 8.2095 4.59245 8.26013 4.67245 8.30672Z" fill="white" style="fill:white;fill-opacity:1;"/>
<path d="M8.30584 7.32869L7.12713 6.64819C7.07041 6.74641 7.00053 6.83757 6.92053 6.91857L8.83244 8.82541C8.98028 8.67757 9.11697 8.51654 9.2395 8.34844L8.15597 7.5616C8.20966 7.48566 8.26028 7.40869 8.30584 7.32869Z" fill="white" style="fill:white;fill-opacity:1;"/>
<path d="M5.66477 7.25659L5.31543 8.57203C5.40452 8.59534 5.49568 8.61456 5.5868 8.62875L5.38124 9.95228C5.58477 9.98369 5.7924 9.99987 5.99999 9.99987H6.00302V7.30015H5.99999C5.88655 7.30015 5.77315 7.28497 5.66477 7.25659Z" fill="white" style="fill:white;fill-opacity:1;"/>
<path d="M7.30025 6C7.30025 6.11444 7.28609 6.22681 7.25671 6.33519L8.57215 6.68556C8.59543 6.59644 8.61468 6.50531 8.62887 6.41416L9.9524 6.62075C9.98378 6.41722 10 6.20759 10 6H7.30025Z" fill="white" style="fill:white;fill-opacity:1;"/>
</g>
</g>
<defs>
<clipPath id="clip0_1064_3644">
<rect width="12" height="12" rx="2" fill="white" style="fill:white;fill-opacity:1;"/>
</clipPath>
<clipPath id="clip1_1064_3644">
<rect width="8" height="8" fill="white" style="fill:white;fill-opacity:1;" transform="translate(2 2)"/>
</clipPath>
</defs>
</svg>
