<svg width="256" height="256" viewBox="0 0 256 256" fill="none" xmlns="http://www.w3.org/2000/svg">
<g clip-path="url(#clip0_340_1436)">
<path d="M42.667 3.55566H213.333C234.933 3.55566 252.444 21.0665 252.444 42.667V213.333C252.444 234.933 234.933 252.444 213.333 252.444H42.667C21.0665 252.444 3.55566 234.933 3.55566 213.333V42.667C3.55566 21.0665 21.0665 3.55566 42.667 3.55566Z" fill="#F8F5FE" stroke="#DCCFFC" stroke-width="7.11111"/>
<path d="M183.218 82.6528H175.367V94.4357H163.591V106.218H151.815V94.4357H140.038V82.6528H128.262V94.4357H116.486V106.218H104.71V94.4357H92.9334V82.6528H81.1571V165.132H187.143V82.6528H183.218ZM151.815 121.929V129.784H128.262V141.567H151.815V153.35H116.486V118.001H151.815V121.929Z" fill="#9F7AF8"/>
<path d="M69.3817 70.8698V82.6526H57.6055V176.915H69.3817V82.6526H81.1579V70.8698H69.3817Z" fill="#371D70"/>
<path d="M116.487 118.002V153.35H151.815V141.567H128.263V129.785H151.815V118.002H116.487Z" fill="#371D70"/>
<path d="M128.263 82.6526H116.487V70.8698H128.263V82.6526Z" fill="#371D70"/>
<path d="M116.488 82.6528V94.4356H104.711V82.6528H116.488Z" fill="#371D70"/>
<path d="M163.591 70.8698V82.6526H151.814V94.4354H163.591V82.6526H175.367V70.8698H163.591Z" fill="#371D70"/>
<path d="M92.936 82.6526H81.16V70.8698H92.936V82.6526Z" fill="#CBBBFB"/>
<path d="M104.712 94.4356H92.9359V82.6528H104.712V94.4356Z" fill="#CBBBFB"/>
<path d="M116.487 94.4358V106.219H104.711V94.4358H116.487Z" fill="#CBBBFB"/>
<path d="M128.263 82.6528V94.4356H116.487V82.6528H128.263Z" fill="#CBBBFB"/>
<path d="M140.039 82.6526H128.263V70.8698H140.039V82.6526Z" fill="#CBBBFB"/>
<path d="M151.815 94.4356V82.6528H140.039V94.4356H151.815Z" fill="#CBBBFB"/>
<path d="M163.591 94.4358H151.814V106.219H163.591V94.4358Z" fill="#CBBBFB"/>
<path d="M175.369 82.6528V94.4356H163.593V82.6528H175.369Z" fill="#CBBBFB"/>
<path d="M187.146 82.6526H175.37V70.8698H187.146V82.6526Z" fill="#CBBBFB"/>
<path d="M187.143 82.6528V165.132H81.1577V82.6528H69.3813V176.915H198.919V82.6528H187.143Z" fill="#CBBBFB"/>
<path d="M69.3813 70.8314V59.0486H92.9338V70.8314H69.3813Z" fill="#170738"/>
<path d="M116.488 70.8315V82.6144H92.9359V70.8315H116.488Z" fill="#170738"/>
<path d="M140.039 70.8314H116.487V59.0486H140.039V70.8314Z" fill="#170738"/>
<path d="M163.592 70.8315V82.6144H140.039V70.8315H163.592Z" fill="#170738"/>
<path d="M187.145 70.8314H163.593V59.0486H187.145V70.8314Z" fill="#170738"/>
<path d="M198.921 82.6144V70.8315H187.145V82.6144H198.921Z" fill="#170738"/>
<path d="M198.92 176.877V82.6146H210.696V176.877H198.92Z" fill="#170738"/>
<path d="M57.6055 176.877H198.92V188.66H57.6055V176.877Z" fill="#170738"/>
<path d="M57.6058 82.6146V176.877H45.8295V82.6146H57.6058Z" fill="#170738"/>
<path d="M57.6055 82.6144H69.3817V70.8315H57.6055V82.6144Z" fill="#170738"/>
</g>
<defs>
<clipPath id="clip0_340_1436">
<rect width="256" height="256" fill="white"/>
</clipPath>
</defs>
</svg>
