<svg viewBox="0 0 18 18" fill="none" xmlns="http://www.w3.org/2000/svg">
<rect width="18" height="18" rx="3" fill="#06353D" style="fill:#06353D;fill:color(display-p3 0.0235 0.2078 0.2392);fill-opacity:1;"/>
<path d="M13.9665 12.0575C13.9682 11.7892 14.9928 11.8007 14.9858 11.5492C14.9817 11.3997 14.7096 11.3685 14.6525 11.1721C14.6429 11.1359 14.6397 11.0941 14.646 11.0454C14.6501 11.0164 14.6575 10.9852 14.6695 10.9509C14.8795 10.3398 14.9937 9.68462 14.9937 9.0023C14.9937 5.69174 12.3103 3.0083 8.99999 3.0083C5.68967 3.0083 3.00623 5.69174 3.00623 9.00206C3.00623 9.68006 3.11927 10.3317 3.32687 10.9396C3.32807 10.9453 3.32999 10.9511 3.33215 10.9571C3.33815 10.9729 3.34295 10.9878 3.34751 11.0025C3.42143 11.2681 3.00743 11.374 3.00743 11.5345C3.00743 11.7885 3.89903 11.7546 3.89903 12.0501C3.89903 12.3073 3.01727 12.3873 3.01727 12.6472C3.01727 13.006 4.96991 12.8812 4.99439 13.1898C5.01335 13.4281 4.32311 13.4425 4.31879 13.6972C4.31207 14.1037 6.98351 13.9705 6.98351 14.241C6.98351 14.4457 5.76839 14.3716 5.76839 14.6135C5.76839 14.8554 7.36799 15.0083 9.13079 15.0083C10.8936 15.0083 12.1097 14.8125 12.1097 14.6001C12.1097 14.3877 10.9747 14.4318 10.9982 14.2408C11.039 13.9072 13.5576 14.0778 13.5576 13.6917C13.5576 13.4884 12.8647 13.4406 12.8873 13.2213C12.9189 12.9114 14.9928 12.9573 14.9928 12.6354C14.9928 12.3822 13.9649 12.3203 13.9665 12.0575ZM11.2812 13.5729C11.2812 13.75 10.4777 13.8306 8.93567 13.8306C7.67471 13.8306 6.42215 13.7514 6.42215 13.5455C6.42215 13.3396 7.91615 13.3211 8.94311 13.3228C10.3109 13.3252 11.2812 13.3885 11.2812 13.5726V13.5729ZM8.99999 4.57382C10.8907 4.57382 12.5042 5.7587 13.1393 7.42646C13.2127 7.6427 12.9463 7.6295 12.7586 7.6295H12.2481C11.8836 7.6295 11.4247 7.67318 11.4247 7.77302C11.4247 7.8983 12.539 7.89086 12.6619 7.89086C13.0214 7.89086 13.3032 7.91798 13.344 8.13854C13.3992 8.4179 13.4285 8.70662 13.4285 9.0023C13.4285 9.5963 13.3111 10.1627 13.0989 10.6801C13.0301 10.8323 12.9396 10.911 12.8299 10.9773C12.3031 11.2703 11.3474 11.2177 11.3477 11.3944C11.3477 11.6509 12.9566 11.5413 12.959 11.7642C12.9626 12.1048 10.0881 11.9027 10.0884 12.2094C10.0886 12.5137 12.4008 12.3719 12.4008 12.6909C12.4008 12.8512 11.6582 12.9102 10.8485 12.9306C9.59087 12.9472 7.36727 12.9376 6.52943 12.9088C6.52943 12.9088 6.52991 12.9093 6.53039 12.9097C5.96351 12.8893 5.48087 12.8121 5.29151 12.7305C5.23943 12.7079 5.23703 12.6445 5.28695 12.6189C5.85983 12.3241 9.35639 12.5589 9.35639 12.2164C9.35639 11.8739 5.90159 12.1113 5.90423 11.8139C5.90615 11.6027 7.41383 11.6212 8.60951 11.6212C10.1582 11.6212 10.6337 11.5437 10.6329 11.4321C10.6317 11.2074 8.72831 11.3392 8.72135 11.0874C8.71463 10.8431 11.7338 11.0214 11.7338 10.7821C11.7338 10.63 10.4222 10.6158 9.11087 10.6206C7.79927 10.6257 6.48791 10.6278 6.48791 10.7905C6.48791 10.9746 8.04023 10.9031 8.04023 11.0874C8.04023 11.2329 7.18727 11.2631 6.29639 11.2631C5.70863 11.2631 5.25263 11.2185 5.02919 10.9413C5.01071 10.9185 4.99223 10.8851 4.97735 10.8551C4.71791 10.2911 4.57175 9.66398 4.57175 9.0023C4.57175 6.5567 6.55439 4.57406 8.99999 4.57406V4.57382Z" fill="white" style="fill:white;fill-opacity:1;"/>
<path d="M8.90954 10.278C10.8168 10.278 12.6739 10.3056 12.6744 10.0924C12.6749 9.83444 10.0111 9.86468 8.6273 9.86468C7.52978 9.86468 5.56226 9.83036 5.56226 10.0754C5.56226 10.3204 7.76522 10.278 8.90954 10.278Z" fill="white" style="fill:white;fill-opacity:1;"/>
<path d="M10.1417 9.54539C11.3957 9.54539 12.0236 9.53075 12.0236 9.37955C12.0236 9.16091 10.3164 9.28211 10.3164 9.06563C10.3164 8.87531 11.395 8.98211 11.395 8.77763C11.395 8.61683 10.1871 8.63171 9.52851 8.63171C8.79819 8.63171 8.07939 8.65931 8.07939 8.79611C8.07939 8.97371 9.92019 8.87387 9.92019 9.05579C9.92019 9.31595 6.99963 9.12803 6.99963 9.37931C6.99963 9.61715 8.89803 9.54515 10.1417 9.54515V9.54539Z" fill="white" style="fill:white;fill-opacity:1;"/>
<path d="M11.372 8.38335C11.6405 8.38335 12.4284 8.36655 12.4284 8.25879C12.4284 8.15103 11.8448 8.11623 11.238 8.11695C10.8212 8.11743 9.97131 8.12415 9.97131 8.24607C9.97131 8.36799 10.6164 8.38359 11.372 8.38335Z" fill="white" style="fill:white;fill-opacity:1;"/>
<path d="M11.8263 8.78099C11.8263 8.88299 12.2768 8.92499 12.6226 8.92499C12.8223 8.92499 13.2032 8.88347 13.2032 8.80259C13.2032 8.70467 12.8122 8.67467 12.5744 8.67155C12.2662 8.66747 11.8265 8.69315 11.8265 8.78099H11.8263Z" fill="white" style="fill:white;fill-opacity:1;"/>
</svg>
