<svg viewBox="0 0 12 12" fill="none" xmlns="http://www.w3.org/2000/svg">
<g clip-path="url(#clip0_1064_3706)">
<rect width="12" height="12" rx="2" fill="black" style="fill:black;fill-opacity:1;"/>
<path d="M3.73163 5.82235L3.73566 7.30085L4.99193 8.04009V8.90568L3.00045 7.73767V5.39001L3.73163 5.82235ZM3.73163 4.34386V5.20542L3 4.77262V3.91107L3.73163 3.47827L4.46684 3.91107L3.73163 4.34386ZM5.51657 3.91107L6.2482 3.47827L6.98342 3.91107L6.2482 4.34386L5.51657 3.91107Z" fill="#F0B90B" style="fill:#F0B90B;fill:color(display-p3 0.9412 0.7255 0.0431);fill-opacity:1;"/>
<path d="M4.26025 6.99439V6.1288L4.99188 6.5616V7.42316L4.26025 6.99439ZM5.51652 8.35013L6.24815 8.78292L6.98337 8.35013V9.21168L6.24815 9.64448L5.51652 9.21168V8.35013ZM8.03265 3.91107L8.76428 3.47827L9.49949 3.91107V4.77262L8.76428 5.20542V4.34386L8.03265 3.91107ZM8.76428 7.30084L8.76831 5.82235L9.49994 5.38956V7.73722L7.50846 8.90523V8.03964L8.76428 7.30084Z" fill="#F0B90B" style="fill:#F0B90B;fill:color(display-p3 0.9412 0.7255 0.0431);fill-opacity:1;"/>
<path d="M8.23969 6.99425L7.50806 7.42301V6.56146L8.23969 6.12866V6.99425Z" fill="#F0B90B" style="fill:#F0B90B;fill:color(display-p3 0.9412 0.7255 0.0431);fill-opacity:1;"/>
<path d="M8.23964 4.65008L8.24367 5.51567L6.98382 6.25492V7.737L6.25219 8.16576L5.52056 7.737V6.25492L4.2607 5.51567V4.65008L4.99547 4.21729L6.24771 4.96012L7.50756 4.21729L8.24277 4.65008H8.23964ZM4.26025 3.17204L6.24815 2L8.23964 3.17204L7.50801 3.60484L6.24815 2.86201L4.99188 3.60484L4.26025 3.17204Z" fill="#F0B90B" style="fill:#F0B90B;fill:color(display-p3 0.9412 0.7255 0.0431);fill-opacity:1;"/>
</g>
<defs>
<clipPath id="clip0_1064_3706">
<rect width="12" height="12" rx="2" fill="white" style="fill:white;fill-opacity:1;"/>
</clipPath>
</defs>
</svg>
