<svg width="256" height="256" viewBox="0 0 256 256" fill="none" xmlns="http://www.w3.org/2000/svg">
<g clip-path="url(#clip0_340_1465)">
<path d="M42.667 3.55566H213.333C234.933 3.55566 252.444 21.0665 252.444 42.667V213.333C252.444 234.933 234.933 252.444 213.333 252.444H42.667C21.0665 252.444 3.55566 234.933 3.55566 213.333V42.667C3.55566 21.0665 21.0665 3.55566 42.667 3.55566Z" fill="url(#paint0_linear_340_1465)" stroke="#E9ECEF" stroke-width="7.11111"/>
<path d="M145.294 148.767C113.332 158.365 86.8919 172.367 70.3372 188.771L69.6068 189.502C74.01 193.666 78.8364 197.393 84.052 200.561L85.1716 199.189C89.6908 193.666 94.5378 188.334 99.5827 183.31C113.127 169.814 128.623 158.133 145.308 148.753L145.287 148.767H145.294Z" fill="black"/>
<path d="M43.4744 134.547C44.751 151.661 51.1066 167.356 61.0804 180.122L61.5378 179.664C71.7845 169.554 85.1238 160.365 101.214 152.358C115.318 145.333 131.511 139.305 148.967 134.547H43.4744Z" fill="black"/>
<path d="M108.526 64.2049C137.123 92.6994 173.113 111.541 212.592 118.689C207.827 76.4452 171.87 43.5815 128.187 43.5815C116.65 43.5815 105.652 45.8821 95.6098 50.0327C99.6853 54.9412 104.041 59.7198 108.526 64.2049Z" fill="black"/>
<path d="M70.3373 67.6925C86.892 84.1175 113.332 98.0985 145.294 107.717C128.61 98.3237 113.113 86.657 99.5691 73.1607C94.5379 68.1499 89.6978 62.8183 85.158 57.2818L84.0385 55.9097C78.8229 59.0772 73.9964 62.7978 69.6137 66.962L70.3442 67.6925H70.3373Z" fill="black"/>
<path d="M108.526 192.259C104.02 196.744 99.6717 201.523 95.6098 206.432C105.638 210.582 116.65 212.883 128.187 212.883C171.877 212.883 207.833 180.019 212.605 137.762C173.133 144.91 137.143 163.751 108.54 192.246L108.526 192.259Z" fill="black"/>
<path d="M101.214 104.106C85.1238 96.0984 71.7845 86.9029 61.5378 76.7994L61.0804 76.342C51.1066 89.1079 44.751 104.802 43.4744 121.917H148.946C131.497 117.159 115.318 111.131 101.194 104.085L101.207 104.106H101.214Z" fill="black"/>
</g>
<defs>
<linearGradient id="paint0_linear_340_1465" x1="128" y1="0" x2="128" y2="256" gradientUnits="userSpaceOnUse">
<stop offset="0.617756" stop-color="white"/>
<stop offset="0.879295" stop-color="#F7F7F7"/>
</linearGradient>
<clipPath id="clip0_340_1465">
<rect width="256" height="256" fill="white"/>
</clipPath>
</defs>
</svg>
