<svg width="256" height="256" viewBox="0 0 256 256" fill="none" xmlns="http://www.w3.org/2000/svg">
<g clip-path="url(#clip0_340_1418)">
<path d="M42.667 3.55566H213.333C234.933 3.55566 252.444 21.0665 252.444 42.667V213.333C252.444 234.933 234.933 252.444 213.333 252.444H42.667C21.0665 252.444 3.55566 234.933 3.55566 213.333V42.667C3.55566 21.0665 21.0665 3.55566 42.667 3.55566Z" fill="#F6F8FE" stroke="#D1DCFA" stroke-width="7.11111"/>
<g clip-path="url(#clip1_340_1418)">
<path d="M202.903 139.99L202.697 140.207C202.6 140.307 202.502 140.406 202.404 140.504L145.761 197.056C135.894 206.907 119.896 206.907 110.028 197.056L94.3865 181.44C93.2775 180.337 93.2752 178.544 94.3791 177.436C94.7039 177.11 95.1032 176.868 95.5422 176.731C112.308 171.556 125.931 165.581 136.41 158.809C161.368 142.679 183.532 136.406 202.903 139.99ZM191.028 93.4698C211.941 100.06 209.5 115.444 209.778 121.509C186.875 109.5 159.322 113.902 127.119 134.714C103.117 150.226 83.0113 156.622 66.8023 153.901C50.5933 151.18 46.9471 131.384 46.2222 126.124C64.033 135.129 87.902 129.961 117.828 110.619C145.715 92.5965 170.115 86.8798 191.028 93.4698ZM145.761 48.2774L160.458 62.9493C161.565 64.0538 161.567 65.8473 160.463 66.9545C160.068 67.3495 159.567 67.6192 159.02 67.7294C137.743 72.0158 120.727 78.2809 107.971 86.5248C86.1134 100.651 67.4869 107.217 52.0919 106.223L52.0936 106.218L110.028 48.2774C119.896 38.4261 135.894 38.4261 145.761 48.2774Z" fill="url(#paint0_linear_340_1418)"/>
</g>
</g>
<defs>
<linearGradient id="paint0_linear_340_1418" x1="128" y1="40.8889" x2="126.397" y2="316.688" gradientUnits="userSpaceOnUse">
<stop stop-color="#3068EF"/>
<stop offset="1" stop-color="#1322AC"/>
</linearGradient>
<clipPath id="clip0_340_1418">
<rect width="256" height="256" fill="white"/>
</clipPath>
<clipPath id="clip1_340_1418">
<rect width="163.556" height="163.556" fill="white" transform="translate(46.2222 40.8889)"/>
</clipPath>
</defs>
</svg>
