<svg width="256" height="256" viewBox="0 0 256 256" fill="none" xmlns="http://www.w3.org/2000/svg">
<g clip-path="url(#clip0_340_1327)">
<path d="M36.5713 3.55566H219.429C237.663 3.55573 252.444 18.3372 252.444 36.5713V219.429C252.444 237.663 237.663 252.444 219.429 252.444H36.5713C18.3372 252.444 3.55573 237.663 3.55566 219.429V36.5713L3.56641 35.7197C4.01099 18.1622 18.1622 4.01099 35.7197 3.56641L36.5713 3.55566Z" fill="url(#paint0_linear_340_1327)" stroke="#E9ECEF" stroke-width="7.11111"/>
<mask id="mask0_340_1327" style="mask-type:luminance" maskUnits="userSpaceOnUse" x="32" y="32" width="192" height="192">
<path d="M224 32H32V224H224V32Z" fill="white"/>
</mask>
<g mask="url(#mask0_340_1327)">
<path fill-rule="evenodd" clip-rule="evenodd" d="M223.144 128.406L169.317 74.8214V114.042L115.894 153.342H169.317V181.991L223.144 128.406Z" fill="black"/>
<path fill-rule="evenodd" clip-rule="evenodd" d="M33.4996 128.415L87.3263 182V143.022L140.75 103.398H87.3263V74.75L33.4996 128.415Z" fill="black"/>
</g>
</g>
<defs>
<linearGradient id="paint0_linear_340_1327" x1="128" y1="0" x2="128" y2="256" gradientUnits="userSpaceOnUse">
<stop offset="0.617756" stop-color="white"/>
<stop offset="0.879295" stop-color="#F7F7F7"/>
</linearGradient>
<clipPath id="clip0_340_1327">
<rect width="256" height="256" fill="white"/>
</clipPath>
</defs>
</svg>
